#!OML:ASF I:\Actors\actors\Patient Classification 2\Patient 1\Session 1\actor1.ASF
:FULLY-SPECIFIED
:DEGREES
162
root -0.626322 18.8941 4.20297 11.0074 -8.40694 -0.918253
lowerback 34.6384 -3.20372 -5.35831
upperback 8.81637 -6.49262 -5.81864
thorax -7.88582 -2.97076 -0.922837
lowerneck -20.5885 6.85053 9.96364
upperneck 22.2275 6.76183 -1.94544
head 11.0344 3.65387 -1.28219
rclavicle 9.54166e-015 2.70347e-014
rhumerus -40.7437 37.0129 -90.0127
rradius 101.318
rwrist -59.2957
rhand -37.6006 -68.3399
rfingers 7.12502
rthumb -10.654 98.0498
lclavicle 9.54166e-015 2.70347e-014
lhumerus 1.35109 0.257785 98.1894
lradius 53.5316
lwrist 76.8363
lhand -32.4699 -5.36099
lfingers 7.12502
lthumb -5.70246 24.5423
rfemur 0 0 0
rtibia 0
rfoot 0 0
rtoes 0
lfemur -20.4033 6.00078 -13.2915
ltibia 22.772
lfoot -15.1029 11.0945
ltoes -55.4071
163
root -0.604988 18.8929 4.17223 11.5816 -8.90639 -0.792733
lowerback 35.1108 -2.93523 -5.56741
upperback 8.89736 -6.25066 -5.73033
thorax -7.93435 -2.85293 -0.796757
lowerneck -20.8456 6.76646 9.86141
upperneck 21.6754 6.70573 -2.16915
head 10.8754 3.58529 -1.35353
rclavicle 2.38542e-014 6.36111e-015
rhumerus -38.6029 37.4004 -89.6316
rradius 100.373
rwrist -62.0398
rhand -37.6207 -68.152
rfingers 7.12502
rthumb -10.6734 97.8609
lclavicle 2.38542e-014 6.36111e-015
lhumerus 3.38149 0.982339 98.5568
lradius 51.9454
lwrist 75.6422
lhand -32.3511 -5.18978
lfingers 7.12502
lthumb -5.58769 24.7166
rfemur 0 0 0
rtibia 0
rfoot 0 0
rtoes 0
lfemur -21.1728 6.42186 -13.6233
ltibia 22.9208
lfoot -15.0516 11.196
ltoes -55.4817
164
root -0.581937 18.8934 4.13848 12.4964 -9.23041 -0.719833
lowerback 35.1719 -2.77008 -5.5889
upperback 8.92319 -6.03699 -5.57087
thorax -7.9063 -2.75491 -0.69643
lowerneck -21.0689 6.69583 9.77614
upperneck 21.1762 6.67924 -2.44467
head 10.7352 3.52636 -1.44143
rclavicle 1.27222e-014 3.33958e-014
rhumerus -37.4422 38.2884 -89.3595
rradius 100.613
rwrist -61.2033
rhand -33.185 -65.5822
rfingers 7.12502
rthumb -6.39285 95.4657
lclavicle 1.27222e-014 3.33958e-014
lhumerus 4.32282 0.733711 98.7162
lradius 52.2058
lwrist 75.5432
lhand -32.2101 -5.40195
lfingers 7.12502
lthumb -5.45159 24.5079
rfemur 0 0 0
rtibia 0
rfoot 0 0
rtoes 0
lfemur -22.3782 6.84229 -13.9409
ltibia 23.0616
lfoot -14.8476 11.1964
ltoes -55.5218
165
root -0.555327 18.8925 4.12745 12.6857 -9.61505 -0.690866
lowerback 36.0771 -2.54766 -5.63722
upperback 8.90959 -5.82854 -5.37409
thorax -8.10084 -2.64652 -0.558872
lowerneck -21.1313 6.63518 9.57034
upperneck 20.7924 6.70321 -2.64317
head 10.6044 3.49289 -1.47728
rclavicle -3.18055e-015 -2.22639e-014
rhumerus -36.728 39.4782 -88.8519
rradius 101.235
rwrist -60.0105
rhand -33.4972 -64.4489
rfingers 7.12502
rthumb -6.69421 94.3231
lclavicle -3.18055e-015 -2.22639e-014
lhumerus 4.95513 0.285802 98.9208
lradius 52.8761
lwrist 75.4391
lhand -31.9031 -5.6652
lfingers 7.12502
lthumb -5.15512 24.2521
rfemur 0 0 0
rtibia 0
rfoot 0 0
rtoes 0
lfemur -22.6313 6.83122 -14.0871
ltibia 23.1716
lfoot -15.0475 11.4163
ltoes -55.2811
166
root -0.540532 18.8936 4.09056 13.7411 -9.62271 -0.56506
lowerback 35.7983 -2.55602 -5.61
upperback 8.83836 -5.78662 -5.18181
thorax -8.05952 -2.62977 -0.393433
lowerneck -21.0166 6.58306 9.34432
upperneck 20.6613 6.72755 -2.69424
head 10.5287 3.47977 -1.45977
rclavicle -3.02153e-014 0
rhumerus -36.1961 40.7186 -88.2581
rradius 101.837
rwrist -59.5861
rhand -35.7539 -64.8522
rfingers 7.12502
rthumb -8.87236 94.6457
lclavicle -3.02153e-014 0
lhumerus 5.28667 -0.281735 99.0227
lradius 53.5609
lwrist 75.2635
lhand -31.8258 -5.86539
lfingers 7.12502
lthumb -5.08049 24.0537
rfemur 0 0 0
rtibia 0
rfoot 0 0
rtoes 0
lfemur -24.0389 7.25552 -14.4329
ltibia 23.2503
lfoot -14.7708 11.0438
ltoes -55.2111
167
root -0.523849 18.8962 4.08131 14.233 -9.82272 -0.593087
lowerback 35.913 -2.51779 -5.44921
upperback 8.85288 -5.68683 -5.14199
thorax -8.09813 -2.58294 -0.4669
lowerneck -20.9008 6.57433 9.34224
upperneck 20.7538 6.72809 -2.69593
head 10.5415 3.48092 -1.46249
rclavicle 5.725e-014 5.08889e-014
rhumerus -35.6485 41.6079 -87.6971
rradius 102.11
rwrist -59.9477
rhand -35.9723 -66.254
rfingers 7.12502
rthumb -9.08308 96.0384
lclavicle 5.725e-014 5.08889e-014
lhumerus 5.55401 -0.956451 98.8747
lradius 53.9502
lwrist 75.2327
lhand -32.0315 -6.02189
lfingers 7.12502
lthumb -5.2791 23.8924
rfemur 0 0 0
rtibia 0
rfoot 0 0
rtoes 0
lfemur -24.6019 7.54589 -14.5522
ltibia 23.2724
lfoot -14.7759 10.888
ltoes -55.2212
168
root -0.506473 18.8989 4.08349 14.3597 -9.96141 -0.636717
lowerback 36.3182 -2.53724 -5.18339
upperback 8.91574 -5.65103 -5.20564
thorax -8.20901 -2.56178 -0.671128
lowerneck -20.79 6.58193 9.49629
upperneck 20.9087 6.69454 -2.67386
head 10.5819 3.48221 -1.48636
rclavicle -1.59028e-015 -9.54166e-015
rhumerus -35.138 42.0849 -87.1814
rradius 102.126
rwrist -60.4245
rhand -35.7184 -66.3912
rfingers 7.12502
rthumb -8.83804 96.1861
lclavicle -1.59028e-015 -9.54166e-015
lhumerus 5.79826 -1.56271 98.5952
lradius 54.0944
lwrist 75.2585
lhand -32.3794 -6.32056
lfingers 7.12502
lthumb -5.61507 23.585
rfemur 0 0 0
rtibia 0
rfoot 0 0
rtoes 0
lfemur -24.7251 7.59741 -14.5899
ltibia 23.2879
lfoot -14.8509 10.8635
ltoes -55.209
169
root -0.497146 18.9018 4.07224 14.554 -9.90093 -0.567909
lowerback 36.6326 -2.59591 -5.11138
upperback 8.95357 -5.71075 -5.17131
thorax -8.28158 -2.58495 -0.640023
lowerneck -20.7764 6.62282 9.56279
upperneck 21.1458 6.72273 -2.63836
head 10.6702 3.50587 -1.47873
rclavicle 3.97569e-014 -4.77083e-014
rhumerus -34.5826 42.3869 -86.5145
rradius 102.051
rwrist -60.8815
rhand -36.0676 -65.0615
rfingers 7.12502
rthumb -9.17501 94.8419
lclavicle 3.97569e-014 -4.77083e-014
lhumerus 5.92869 -1.95066 98.4212
lradius 54.3209
lwrist 75.1366
lhand -32.7382 -6.96051
lfingers 7.12502
lthumb -5.96145 22.9356
rfemur 0 0 0
rtibia 0
rfoot 0 0
rtoes 0
lfemur -25.048 7.8505 -14.7668
ltibia 23.3075
lfoot -14.6301 10.5571
ltoes -55.2394
170
root -0.488294 18.904 4.06288 14.6629 -9.80482 -0.491734
lowerback 36.9398 -2.63424 -5.15756
upperback 9.02749 -5.77171 -5.04126
thorax -8.28661 -2.61163 -0.449
lowerneck -20.7432 6.68552 9.68169
upperneck 21.2499 6.83225 -2.86089
head 10.7229 3.53865 -1.56029
rclavicle 2.54444e-014 3.49861e-014
rhumerus -33.9851 42.5939 -85.7006
rradius 102.04
rwrist -61.3049
rhand -36.248 -64.3395
rfingers 7.12502
rthumb -9.34913 94.1122
lclavicle 2.54444e-014 3.49861e-014
lhumerus 5.94196 -2.29292 98.2775
lradius 54.8736
lwrist 74.8906
lhand -32.9587 -7.50729
lfingers 7.12502
lthumb -6.1743 22.3827
rfemur 0 0 0
rtibia 0
rfoot 0 0
rtoes 0
lfemur -25.2743 7.85955 -14.8998
ltibia 23.3549
lfoot -14.5469 10.4716
ltoes -55.1712
171
root -0.477999 18.904 4.05942 14.7777 -9.72511 -0.489002
lowerback 37.0919 -2.67082 -5.05722
upperback 9.16338 -5.76859 -4.95678
thorax -8.18874 -2.61467 -0.412727
lowerneck -20.6739 6.7028 9.91126
upperneck 21.1124 6.86834 -3.17557
head 10.6835 3.53505 -1.7065
rclavicle -3.49861e-014 1.43125e-014
rhumerus -33.5692 42.4757 -84.9864
rradius 102.282
rwrist -61.5605
rhand -36.1846 -64.3535
rfingers 7.12502
rthumb -9.28793 94.129
lclavicle -3.49861e-014 1.43125e-014
lhumerus 5.97013 -2.91282 97.9492
lradius 55.562
lwrist 74.6717
lhand -33.0552 -7.64103
lfingers 7.12502
lthumb -6.2675 22.2463
rfemur 0 0 0
rtibia 0
rfoot 0 0
rtoes 0
lfemur -25.4763 7.76274 -14.9413
ltibia 23.4284
lfoot -14.5587 10.5332
ltoes -54.9994
172
root -0.463654 18.9033 4.06349 14.7712 -9.62165 -0.555956
lowerback 37.3307 -2.74925 -4.71987
upperback 9.35681 -5.73985 -4.92552
thorax -8.08754 -2.60646 -0.562112
lowerneck -20.7934 6.69269 9.97525
upperneck 20.9398 6.83421 -3.23908
head 10.6447 3.51463 -1.74266
rclavicle -6.52014e-014 -1.27222e-014
rhumerus -33.3388 42.119 -84.3872
rradius 102.678
rwrist -61.6672
rhand -35.9819 -64.1569
rfingers 7.12502
rthumb -9.09238 93.9409
lclavicle -6.52014e-014 -1.27222e-014
lhumerus 6.09849 -3.78824 97.4905
lradius 56.1563
lwrist 74.4499
lhand -33.215 -7.67246
lfingers 7.12502
lthumb -6.42177 22.2102
rfemur 0 0 0
rtibia 0
rfoot 0 0
rtoes 0
lfemur -25.5135 7.48513 -14.8796
ltibia 23.5171
lfoot -14.6375 10.7432
ltoes -54.8026
173
root -0.453281 18.9049 4.05281 14.8977 -9.24824 -0.582136
lowerback 37.5196 -2.94525 -4.3242
upperback 9.52515 -5.8177 -4.81123
thorax -7.99157 -2.64666 -0.614152
lowerneck -20.9434 6.66883 9.87195
upperneck 20.695 6.81302 -3.23185
head 10.5758 3.4945 -1.72426
rclavicle -4.77083e-015 1.43125e-014
rhumerus -33.1498 41.835 -83.8421
rradius 102.984
rwrist -61.7346
rhand -36.2979 -64.0916
rfingers 7.12502
rthumb -9.39722 93.8621
lclavicle -4.77083e-015 1.43125e-014
lhumerus 6.74558 -4.39872 97.2259
lradius 55.9784
lwrist 73.7685
lhand -33.4656 -7.96927
lfingers 7.12502
lthumb -6.66372 21.9059
rfemur 0 0 0
rtibia 0
rfoot 0 0
rtoes 0
lfemur -25.8362 7.39449 -14.891
ltibia 23.615
lfoot -14.4709 10.6057
ltoes -54.7335
174
root -0.444184 18.9089 4.04126 14.9517 -8.8434 -0.545099
lowerback 37.706 -3.14993 -3.96911
upperback 9.76296 -5.91591 -4.7123
thorax -7.81476 -2.69781 -0.657075
lowerneck -21.1253 6.6366 9.76465
upperneck 20.4343 6.78495 -3.25108
head 10.5075 3.46744 -1.71523
rclavicle 5.08889e-014 2.70347e-014
rhumerus -32.7581 41.5061 -83.3043
rradius 103.023
rwrist -61.8431
rhand -35.7177 -63.102
rfingers 7.12502
rthumb -8.8374 92.8969
lclavicle 5.08889e-014 2.70347e-014
lhumerus 7.53675 -4.87646 97.0167
lradius 55.632
lwrist 73.1224
lhand -33.9528 -8.69863
lfingers 7.12502
lthumb -7.13403 21.1611
rfemur 0 0 0
rtibia 0
rfoot 0 0
rtoes 0
lfemur -26.1043 7.33805 -14.9684
ltibia 23.722
lfoot -14.2919 10.4098
ltoes -54.8334
175
root -0.436718 18.912 4.03028 14.8912 -8.39709 -0.435955
lowerback 38.0181 -3.35285 -3.62759
upperback 10.04 -6.02175 -4.63957
thorax -7.63829 -2.74997 -0.714781
lowerneck -21.4286 6.59407 9.64941
upperneck 20.2516 6.72332 -3.2288
head 10.4856 3.42882 -1.69248
rclavicle -1.59028e-014 -9.54166e-015
rhumerus -32.1279 40.9189 -82.8483
rradius 102.565
rwrist -61.9276
rhand -35.6726 -59.9249
rfingers 7.12502
rthumb -8.79383 270.278
lclavicle -1.59028e-014 -9.54166e-015
lhumerus 8.37878 -5.29893 96.8331
lradius 55.2257
lwrist 72.7079
lhand -34.4544 -10.1375
lfingers 7.12502
lthumb -7.61815 19.7053
rfemur 0 0 0
rtibia 0
rfoot 0 0
rtoes 0
lfemur -26.2608 7.23877 -15.1107
ltibia 23.8185
lfoot -14.0501 10.2199
ltoes -55.1433
176
root -0.429204 18.9129 4.02453 15.0044 -7.976 -0.415974
lowerback 38.0432 -3.56879 -3.21802
upperback 10.3174 -6.10048 -4.52558
thorax -7.3663 -2.79417 -0.785336
lowerneck -21.6093 6.55331 9.56912
upperneck 19.9345 6.68463 -3.28763
head 10.3985 3.39419 -1.70402
rclavicle -2.54444e-014 -1.11319e-014
rhumerus -31.342 40.1682 -82.5762
rradius 101.556
rwrist -61.9951
rhand -35.3786 -56.4309
rfingers 7.12502
rthumb -8.51015 273.761
lclavicle -2.54444e-014 -1.11319e-014
lhumerus 9.11264 -5.61272 96.6842
lradius 54.9127
lwrist 71.9642
lhand -34.8779 -12.4603
lfingers 7.12502
lthumb -8.02691 17.3672
rfemur 0 0 0
rtibia 0
rfoot 0 0
rtoes 0
lfemur -26.5715 7.15029 -15.1781
ltibia 23.8998
lfoot -13.8174 10.0439
ltoes -55.4151
